<svg xmlns="http://www.w3.org/2000/svg" xmlns:xlink="http://www.w3.org/1999/xlink" version="1.0" x="0px" y="0px" viewBox="-1.6 -3.2 35.2 43.2" enable-background="new 0 0 32 32" xml:space="preserve"><path d="M0.736,11.452c-1.016-1.003-0.953-2.03,0-2.815l13.85-8.098c0.988-0.719,1.812-0.719,2.769,0l13.85,8.098  c1.109,0.972,0.984,1.999,0,2.815l-13.85,8.099c-0.805,0.586-1.781,0.66-2.769,0L0.736,11.452z M17.526,23.502  c-0.906,0.645-2.007,0.727-3.116,0L0.166,15.361c-0.309,0.645-0.156,1.371,0.57,2.089l13.85,8.098c0.988,0.66,1.964,0.586,2.769,0  l13.85-8.098c0.746-0.617,0.996-1.359,0.59-2.105L17.526,23.502z M17.526,29.5c-0.906,0.644-2.007,0.726-3.116,0L0.166,21.358  c-0.309,0.645-0.156,1.37,0.57,2.089l13.85,8.099c0.988,0.659,1.964,0.585,2.769,0l13.85-8.099c0.746-0.617,0.996-1.358,0.59-2.104  L17.526,29.5z"/><text x="0.0" y="37.6" font-size="1.6" font-weight="bold" font-family="Arbeit Regular, Helvetica, Arial-Unicode, Arial, Sans-serif" fill="#000000">Created by PixelBazaar</text><text x="0.0" y="39.2" font-size="1.6" font-weight="bold" font-family="Arbeit Regular, Helvetica, Arial-Unicode, Arial, Sans-serif" fill="#000000">from Noun Project</text></svg>