<svg xmlns="http://www.w3.org/2000/svg" version="1.1" viewBox="-5.0 -10.0 110.0 135.0">
 <path d="m86.367 30.852v-2.3281c0-3.2422-2.6328-5.8789-5.8711-5.8906v-2.3281c0-3.25-2.6445-5.8906-5.8906-5.8906h-60.953c-3.25 0-5.8906 2.6445-5.8906 5.8906v40.434c0 3.2422 2.6328 5.8789 5.8711 5.8906v2.3281c0 3.2422 2.6328 5.8789 5.8711 5.8906v2.3281c0 3.25 2.6445 5.8906 5.8906 5.8906h60.953c3.25 0 5.8906-2.6445 5.8906-5.8906v-40.434c0-3.2383-2.6328-5.8789-5.8711-5.8906zm2.8711 5.8906v30.648l-17.543-16.383c-1.2773-1.1953-3.2734-1.1875-4.5469 0.011719l-16.727 15.758c-0.10938 0.10547-0.27734 0.11719-0.39844 0.035156l-9.7852-6.4727c-1.0625-0.70312-2.4102-0.74219-3.5078-0.097656l-14.223 8.3008-0.003906-31.801c0-1.5938 1.2969-2.8906 2.8906-2.8906h60.953c1.5938 0 2.8906 1.2969 2.8906 2.8906zm-75.605-8.2188v35.102c-1.5859-0.011719-2.8711-1.3008-2.8711-2.8906v-40.43c0-1.5938 1.2969-2.8906 2.8906-2.8906h60.953c1.5938 0 2.8906 1.2969 2.8906 2.8906v2.3281h-57.973c-3.25 0-5.8906 2.6445-5.8906 5.8906zm3 40.434v-40.434c0-1.5938 1.2969-2.8906 2.8906-2.8906h60.953c1.5938 0 2.8906 1.2969 2.8906 2.8906v2.3281h-57.973c-3.25 0-5.8906 2.6445-5.8906 5.8906v35.102c-1.5859-0.007812-2.8711-1.2969-2.8711-2.8867zm69.715 11.113h-60.953c-1.5938 0-2.8906-1.2969-2.8906-2.8906v-5.1602l15.734-9.1836c0.10547-0.0625 0.23828-0.058594 0.33984 0.011718l9.7852 6.4727c1.293 0.85156 2.9844 0.71094 4.1133-0.35156l16.73-15.762c0.125-0.11719 0.31641-0.11719 0.44141 0l19.59 18.293v5.6758c0 1.5938-1.2969 2.8945-2.8906 2.8945z"/>
 <path d="m46.141 41.918c-4.4492 0-8.0664 3.6172-8.0664 8.0664s3.6172 8.0664 8.0664 8.0664 8.0664-3.6172 8.0664-8.0664-3.6211-8.0664-8.0664-8.0664zm0 13.137c-2.793 0-5.0664-2.2734-5.0664-5.0664 0-2.7969 2.2734-5.0664 5.0664-5.0664 2.7969 0 5.0664 2.2734 5.0664 5.0664s-2.2734 5.0664-5.0664 5.0664z"/>
<text x="0.0" y="117.5" font-size="5.0" font-weight="bold" font-family="Arbeit Regular, Helvetica, Arial-Unicode, Arial, Sans-serif" fill="#000000">Created by SANB</text><text x="0.0" y="122.5" font-size="5.0" font-weight="bold" font-family="Arbeit Regular, Helvetica, Arial-Unicode, Arial, Sans-serif" fill="#000000">from Noun Project</text></svg>